<svg id="Layer_1" data-name="Layer 1" xmlns="http://www.w3.org/2000/svg" viewBox="0 0 125.47 147.4"><defs><style>.cls-1{fill:#c3996b;}</style></defs><title>GoldSpadeLogo</title><path class="cls-1" d="M44.4,478.4H31.8l30.3-29.6L42.8,448l32.6-31.1a1.38,1.38,0,0,1-.3-0.4,69.87,69.87,0,0,1-12.1-15c-0.1-.1-0.2-0.3-0.4-0.5a2.65,2.65,0,0,0-.5.6,61.46,61.46,0,0,1-11.3,14.1c-8.1,7.8-16.4,15.3-24.6,23-7.3,6.9-14.4,14-19.8,22.5A41.08,41.08,0,0,0,0,478.9v6.3a11.15,11.15,0,0,0,.5,3.1,26.64,26.64,0,0,0,13.3,17.2,37.19,37.19,0,0,0,3.4,1.9Z" transform="translate(0 -401)"/><path class="cls-1" d="M125.1,477.6c-1.3-8.3-5.2-15.3-10.3-21.8-5.5-7.2-12-13.5-18.6-19.6-1.7-1.6-3.4-3.1-5.1-4.7L77.3,442.7l17.8,0.4L55.8,473.4H74.2L17.9,507.6C29,512.3,40,511,50.7,504.1c1.9-1.2,3.5-3.1,5.2-4.7,0.3-.3.6-0.7,0.9-1,0.1,0,.2.1,0.3,0.1-0.9,4.8-1.8,9.7-2.8,14.5-1.8,7.8-4.2,15.4-8.4,22.4-2.8,4.7-6.3,8.7-11.4,11.1a16.89,16.89,0,0,1-6.1,1.9H97.2c-7.4,0-12.6-4.9-16.7-10.7s-6.7-12.5-8.6-19.4a148,148,0,0,1-4.1-19.8v-0.7c1,1.1,1.8,2,2.7,2.9a32.51,32.51,0,0,0,25.9,9.2,31.64,31.64,0,0,0,23.1-11.5C124.6,492.4,126.3,485.4,125.1,477.6Z" transform="translate(0 -401)"/></svg>