<?xml version="1.0" encoding="utf-8"?>
<!-- Generator: Adobe Illustrator 19.2.1, SVG Export Plug-In . SVG Version: 6.00 Build 0)  -->
<svg version="1.1" id="Layer_1" xmlns="http://www.w3.org/2000/svg" xmlns:xlink="http://www.w3.org/1999/xlink" x="0px" y="0px"
	 viewBox="0 0 536 600" style="enable-background:new 0 0 536 600;" xml:space="preserve">
<style type="text/css">
	.st0{fill:#C1B49A;}
	.st1{fill:#FFFFFF;}
	.st2{fill:#C3996B;}
	.st3{fill:#BBA7C4;}
	.st4{fill:#8C8C8C;}
	.st5{font-family:'Helvetica';}
	.st6{font-size:10.4367px;}
	.st7{letter-spacing:1;}
</style>
<rect x="-28" y="-1240" class="st0" width="800" height="59.3"/>
<text transform="matrix(1 0 0 1 433.6572 -1205.3206)" class="st1" style="font-family:'Helvetica-Bold'; font-size:9px;">ABOUT</text>
<text transform="matrix(1 0 0 1 538.0851 -1205.3206)" class="st1" style="font-family:'Helvetica-Bold'; font-size:9px;">WORK</text>
<text transform="matrix(1 0 0 1 633.9463 -1205.3206)" class="st1" style="font-family:'Helvetica-Bold'; font-size:9px;">CONTACT</text>
<g>
	<path class="st1" d="M2.1-1203.8h-4.2l10-9.8l-6.4-0.3l10.7-10.3c0,0-0.1-0.1-0.1-0.1c-1.6-1.5-2.9-3.1-4-4.9c0,0-0.1-0.1-0.1-0.2
		c-0.1,0.1-0.1,0.1-0.2,0.2c-1,1.7-2.3,3.3-3.7,4.6c-2.7,2.6-5.4,5-8.1,7.6c-2.4,2.3-4.7,4.6-6.5,7.4c-1.1,1.8-1.9,3.8-2.1,5.8v2.1
		c0,0.3,0.1,0.7,0.2,1c0.6,2.4,2.2,4.5,4.4,5.7c0.4,0.2,0.7,0.4,1.1,0.6L2.1-1203.8z"/>
	<path class="st1" d="M28.7-1204.1c-0.4-2.7-1.7-5-3.4-7.2c-1.8-2.4-4-4.5-6.1-6.5c-0.6-0.5-1.1-1-1.7-1.5l-4.6,3.7l5.9,0.1l-13,10
		h6.1l-18.6,11.3c3.7,1.5,7.3,1.1,10.8-1.2c0.6-0.4,1.2-1,1.7-1.5c0.1-0.1,0.2-0.2,0.3-0.3c0,0,0.1,0,0.1,0
		c-0.3,1.6-0.6,3.2-0.9,4.8c-0.6,2.6-1.4,5.1-2.8,7.4c-0.9,1.5-2.1,2.9-3.8,3.7c-0.6,0.3-1.3,0.5-2,0.6h22.7c-2.4,0-4.2-1.6-5.5-3.5
		c-1.4-1.9-2.2-4.1-2.8-6.4c-0.6-2.1-1.1-4.3-1.4-6.5v-0.2c0.3,0.4,0.6,0.7,0.9,1c2.3,2.2,5.4,3.3,8.5,3c3-0.1,5.7-1.5,7.6-3.8
		C28.5-1199.2,29.1-1201.5,28.7-1204.1z"/>
</g>
<g>
	<path class="st2" d="M-974.5-1828.1h-2.5l6-5.9l-3.8-0.2l6.5-6.2c0,0,0,0-0.1-0.1c-0.9-0.9-1.7-1.9-2.4-3c0,0,0-0.1-0.1-0.1
		c0,0-0.1,0.1-0.1,0.1c-0.6,1-1.4,2-2.2,2.8c-1.6,1.5-3.2,3-4.9,4.6c-1.4,1.4-2.9,2.8-3.9,4.5c-0.7,1.1-1.1,2.3-1.3,3.5v1.2
		c0,0.2,0,0.4,0.1,0.6c0.4,1.5,1.3,2.7,2.6,3.4c0.2,0.1,0.4,0.3,0.7,0.4L-974.5-1828.1z"/>
	<path class="st2" d="M-958.5-1828.3c-0.3-1.6-1-3-2-4.3c-1.1-1.4-2.4-2.7-3.7-3.9c-0.3-0.3-0.7-0.6-1-0.9l-2.7,2.2l3.5,0.1l-7.8,6
		h3.6l-11.1,6.8c2.2,0.9,4.4,0.7,6.5-0.7c0.4-0.2,0.7-0.6,1-0.9c0.1-0.1,0.1-0.1,0.2-0.2c0,0,0,0,0.1,0c-0.2,1-0.4,1.9-0.6,2.9
		c-0.4,1.5-0.8,3-1.7,4.4c-0.6,0.9-1.2,1.7-2.3,2.2c-0.4,0.2-0.8,0.3-1.2,0.4h13.6c-1.5,0-2.5-1-3.3-2.1c-0.8-1.1-1.3-2.5-1.7-3.8
		c-0.4-1.3-0.6-2.6-0.8-3.9v-0.1c0.2,0.2,0.4,0.4,0.5,0.6c1.4,1.3,3.2,2,5.1,1.8c1.8-0.1,3.4-0.9,4.6-2.3
		C-958.6-1825.4-958.3-1826.7-958.5-1828.3z"/>
</g>
<g>
	<g id="Ycdg4C.tif_5_">
		<g>
			<path class="st3" d="M-981.5-1827.7c0-0.3,0-0.6,0-0.9c0,0,0-0.1,0-0.1c0.1-1.1,0.5-2,1.1-2.9c0.9-1.4,2.1-2.6,3.3-3.7
				c1.4-1.3,2.7-2.5,4.1-3.8c0.7-0.7,1.4-1.5,1.9-2.3c0,0,0-0.1,0.1-0.1c0,0,0,0.1,0.1,0.1c0.5,0.9,1.2,1.7,2,2.5
				c1.1,1.1,2.3,2.2,3.5,3.3c1.1,1,2.2,2.1,3.1,3.2c0.8,1.1,1.5,2.2,1.7,3.6c0.2,1.3-0.1,2.4-0.9,3.5c-1,1.2-2.3,1.8-3.8,1.9
				c-1.6,0.1-3.1-0.4-4.3-1.5c-0.2-0.1-0.3-0.3-0.5-0.5c0,0.1,0,0.1,0,0.1c0.2,1.1,0.4,2.2,0.7,3.3c0.3,1.1,0.7,2.2,1.4,3.2
				c0.7,1,1.5,1.7,2.8,1.8c-3.8,0-7.7,0-11.4,0c0.3-0.1,0.7-0.2,1-0.3c0.8-0.4,1.4-1.1,1.9-1.9c0.7-1.1,1.1-2.4,1.4-3.7
				c0.2-0.8,0.3-1.6,0.5-2.4c0,0,0,0-0.1,0c0,0.1-0.1,0.1-0.1,0.2c-0.3,0.3-0.5,0.6-0.9,0.8c-2,1.3-4,1.4-6.1,0.2
				c-1.1-0.6-1.9-1.6-2.2-2.8C-981.4-1827.4-981.4-1827.5-981.5-1827.7z"/>
		</g>
	</g>
	<g id="_x31_UulkA.tif_4_">
		<g>
			<path d="M-962.5-1839.7c-2,1.7-4.4,3.4-6.3,5.1c0,0,3,0,3,0c-2.1,1.6-4.4,3.3-6.6,5c1.1,0,2.1,0,3.1,0c0,0-5.6,3-8.4,4.5
				c0,0,2.3-2.5,3.5-3.7c-0.8,0-1.4,0-2.1,0c0,0,3.3-3.3,5.1-4.9c-1.1,0-2.1-0.1-3.2-0.1c0.1-0.1,6-5.8,6.1-5.8
				C-966.9-1839.6-962.6-1839.7-962.5-1839.7z"/>
		</g>
	</g>
	<text transform="matrix(1 0 0 1 -982.6287 -1817.1066)" class="st1" style="font-family:'Metalista'; font-size:32.382px;">MARTA</text>
</g>
<path class="st1" d="M515.8,311c-5.3-33.7-21.3-62.3-41.7-88.8c-22.5-29.2-48.8-54.7-75.8-79.6c-7-6.5-14-13-21-19.4
	c-21.1,16.5-41.7,33-60.2,49.4c7.2,0.3,72.2,0.4,72.3,0.9C337,213.5,281.7,253,227.9,296c26.3,0,51,0,75.7,0
	c0.2,0-138,74.9-207.3,111.8c-0.3-0.4,55.6-62.8,85.2-91.8c-18.5,0-35.1,0-51.7,0c-0.3,0,81.6-79.3,124.3-119.9
	c-27-1-52.4-1.5-79-2.4c0,0,0-0.1,0-0.1c0,0,0,0,0,0c0.5-0.5,8.4-8.2,20.3-19.7c31.4-30.3,90.7-87.3,117-111.8
	c-18.9-18.2-36-37.9-49.2-60.8c-0.3-0.6-0.8-1-1.5-1.8c-0.7,0.9-1.4,1.6-1.9,2.4C247.5,23.2,231.8,42,214.1,59
	c-32.9,31.6-66.7,62.3-99.9,93.6c-29.7,28-58.4,56.9-80.3,91.6C20,266.3,10.8,289.9,7.9,316.1c-0.1,0.8,0.1,1.6,0.1,2.3
	c0,7.8,0,15.6,0,23.3c0,4.2,0.9,8.5,1.9,12.7c8,31.3,26.3,54.7,54.1,69.8c50.8,27.6,101,25.7,149.7-5.9c7.8-5.1,14.1-12.4,21.1-18.7
	c1.3-1.2,2.4-2.7,3.6-4c0.4,0.2,0.9,0.3,1.3,0.5c-3.8,19.6-7.2,39.4-11.5,58.9c-7.2,31.9-17.1,62.8-34,91
	c-11.6,19.3-25.7,36.7-46.5,46.3c-8.7,4-18.3,8.7-24.9,8.7c91.3,0,185.6,0,279.8,0c-30.1,0-51.2-20.9-67.8-44.5
	c-16.9-24-27.1-51.3-35.1-79.4c-7.6-26.5-12.6-53.6-16.6-80.8c-0.1-0.6,0-1.4,0-2.8c4,4.3,7.4,8.2,11.1,11.8
	c29.5,28.4,65.2,40.1,105.5,37.4c37.5-2.5,69.6-17.3,93.8-46.7C513.8,371.2,520.8,342.6,515.8,311z"/>
<g>
	<g id="Ycdg4C.tif_4_">
		<g>
			<path class="st3" d="M-1357.2-1576.2c0-0.8,0-1.5,0-2.3c0-0.1,0.1-0.1,0.1-0.2c0.3-2.6,1.3-4.9,2.6-7c2.2-3.4,5-6.2,7.9-9
				c3.3-3.1,6.6-6.1,9.8-9.2c1.7-1.7,3.3-3.5,4.5-5.6c0-0.1,0.1-0.1,0.2-0.2c0.1,0.1,0.1,0.1,0.1,0.2c1.3,2.2,3,4.2,4.8,6
				c2.8,2.7,5.6,5.3,8.4,7.9c2.6,2.4,5.2,4.9,7.4,7.8c2,2.6,3.6,5.4,4.1,8.7c0.5,3.1-0.2,5.9-2.2,8.3c-2.4,2.9-5.5,4.3-9.2,4.6
				c-4,0.3-7.4-0.9-10.3-3.7c-0.4-0.3-0.7-0.7-1.1-1.2c0,0.1,0,0.2,0,0.3c0.4,2.7,0.9,5.3,1.6,7.9c0.8,2.7,1.8,5.4,3.4,7.8
				c1.6,2.3,3.7,4,6.6,4.3c-9.2,0-18.5,0-27.4,0c0.6-0.2,1.6-0.4,2.4-0.8c2-0.9,3.4-2.6,4.6-4.5c1.7-2.8,2.6-5.8,3.3-8.9
				c0.4-1.9,0.8-3.8,1.1-5.8c0,0-0.1,0-0.1,0c-0.1,0.1-0.2,0.3-0.4,0.4c-0.7,0.6-1.3,1.3-2.1,1.8c-4.8,3.1-9.7,3.3-14.7,0.6
				c-2.7-1.5-4.6-3.8-5.3-6.8C-1357-1575.4-1357.1-1575.8-1357.2-1576.2z"/>
		</g>
	</g>
	<g id="_x31_UulkA.tif_3_">
		<g>
			<path d="M-1311.5-1605.1c-4.7,4.2-10.6,8.3-15.2,12.4c0,0,7.1,0,7.2,0.1c-5.1,3.9-10.6,8.1-15.8,12.1c2.6,0,5,0,7.4,0
				c0,0-13.5,7.3-20.3,11c0,0,5.5-5.9,8.3-9c-1.8,0-3.4,0-5.1,0c0-0.1,8-7.8,12.2-11.8c-2.6-0.1-5.1-0.2-7.7-0.3
				c0.2-0.2,14.5-14.1,14.8-14.1C-1322.1-1604.9-1311.8-1605.1-1311.5-1605.1z"/>
		</g>
	</g>
	<text transform="matrix(1 0 0 1 -1359.9863 -1550.6761)" class="st1" style="font-family:'Metalista'; font-size:78.0364px;">MARTA</text>
</g>
<rect x="-28" y="-1989.3" width="800" height="59.3"/>
<text transform="matrix(1 0 0 1 369.2178 -1954.5894)" class="st1 st5" style="font-size:7.854px;">ABOUT</text>
<text transform="matrix(1 0 0 1 489.2521 -1954.5894)" class="st1 st5" style="font-size:7.854px;">WORK</text>
<text transform="matrix(1 0 0 1 609.2861 -1954.5894)" class="st1 st5" style="font-size:7.854px;">CONTACT</text>
<rect x="-28" y="-1989.3" width="800" height="59.3"/>
<text transform="matrix(1 0 0 1 369.2178 -1954.5894)" class="st1 st5" style="font-size:7.854px;">ABOUT</text>
<text transform="matrix(1 0 0 1 489.2521 -1954.5894)" class="st1 st5" style="font-size:7.854px;">WORK</text>
<text transform="matrix(1 0 0 1 609.2861 -1954.5894)" class="st1 st5" style="font-size:7.854px;">CONTACT</text>
<g>
	<path class="st2" d="M0.5-1958.4H-2l6-5.9l-3.8-0.2l6.5-6.2c0,0,0,0-0.1-0.1c-0.9-0.9-1.7-1.9-2.4-3c0,0,0-0.1-0.1-0.1
		c0,0-0.1,0.1-0.1,0.1c-0.6,1-1.4,2-2.2,2.8c-1.6,1.5-3.2,3-4.9,4.6c-1.4,1.4-2.9,2.8-3.9,4.5c-0.7,1.1-1.1,2.3-1.3,3.5v1.2
		c0,0.2,0,0.4,0.1,0.6c0.4,1.5,1.3,2.7,2.6,3.4c0.2,0.1,0.4,0.3,0.7,0.4L0.5-1958.4z"/>
	<path class="st2" d="M16.5-1958.6c-0.3-1.6-1-3-2-4.3c-1.1-1.4-2.4-2.7-3.7-3.9c-0.3-0.3-0.7-0.6-1-0.9l-2.7,2.2l3.5,0.1l-7.8,6
		h3.6l-11.1,6.8c2.2,0.9,4.4,0.7,6.5-0.7c0.4-0.2,0.7-0.6,1-0.9c0.1-0.1,0.1-0.1,0.2-0.2c0,0,0,0,0.1,0c-0.2,1-0.4,1.9-0.6,2.9
		c-0.4,1.5-0.8,3-1.7,4.4c-0.6,0.9-1.2,1.7-2.3,2.2c-0.4,0.2-0.8,0.3-1.2,0.4H11c-1.5,0-2.5-1-3.3-2.1c-0.8-1.1-1.3-2.5-1.7-3.8
		c-0.4-1.3-0.6-2.6-0.8-3.9v-0.1c0.2,0.2,0.4,0.4,0.5,0.6c1.4,1.3,3.2,2,5.1,1.8c1.8-0.1,3.4-0.9,4.6-2.3
		C16.4-1955.6,16.7-1957,16.5-1958.6z"/>
</g>
<g>
	<path class="st2" d="M0.5-1958.4H-2l6-5.9l-3.8-0.2l6.5-6.2c0,0,0,0-0.1-0.1c-0.9-0.9-1.7-1.9-2.4-3c0,0,0-0.1-0.1-0.1
		c0,0-0.1,0.1-0.1,0.1c-0.6,1-1.4,2-2.2,2.8c-1.6,1.5-3.2,3-4.9,4.6c-1.4,1.4-2.9,2.8-3.9,4.5c-0.7,1.1-1.1,2.3-1.3,3.5v1.2
		c0,0.2,0,0.4,0.1,0.6c0.4,1.5,1.3,2.7,2.6,3.4c0.2,0.1,0.4,0.3,0.7,0.4L0.5-1958.4z"/>
	<path class="st2" d="M16.5-1958.6c-0.3-1.6-1-3-2-4.3c-1.1-1.4-2.4-2.7-3.7-3.9c-0.3-0.3-0.7-0.6-1-0.9l-2.7,2.2l3.5,0.1l-7.8,6
		h3.6l-11.1,6.8c2.2,0.9,4.4,0.7,6.5-0.7c0.4-0.2,0.7-0.6,1-0.9c0.1-0.1,0.1-0.1,0.2-0.2c0,0,0,0,0.1,0c-0.2,1-0.4,1.9-0.6,2.9
		c-0.4,1.5-0.8,3-1.7,4.4c-0.6,0.9-1.2,1.7-2.3,2.2c-0.4,0.2-0.8,0.3-1.2,0.4H11c-1.5,0-2.5-1-3.3-2.1c-0.8-1.1-1.3-2.5-1.7-3.8
		c-0.4-1.3-0.6-2.6-0.8-3.9v-0.1c0.2,0.2,0.4,0.4,0.5,0.6c1.4,1.3,3.2,2,5.1,1.8c1.8-0.1,3.4-0.9,4.6-2.3
		C16.4-1955.6,16.7-1957,16.5-1958.6z"/>
</g>
<g>
	<polygon class="st2" points="321.5,-2130.2 309.2,-2112.1 296.9,-2130.2 294.8,-2130.2 294.8,-2099.7 297,-2099.7 297,-2126.2 
		309.1,-2108.6 309.2,-2108.6 321.3,-2126.2 321.3,-2099.7 323.6,-2099.7 323.6,-2130.2 	"/>
	<path class="st2" d="M344.9-2128l8,17.7h-16.1L344.9-2128z M343.8-2130.4l-14.2,30.8h2.4l3.9-8.6h18l3.9,8.6h2.5l-14.2-30.8H343.8z
		"/>
	<g>
		<path class="st2" d="M378.8-2114.4c5.1,0,8.9-2.6,8.9-7v-0.1c0-4.1-3.2-6.7-8.8-6.7h-10.4v13.8H378.8z M366.2-2130.2h12.8
			c3.8,0,6.8,1.2,8.6,3c1.4,1.4,2.3,3.5,2.3,5.7v0.1c0,5.1-3.8,8-9,8.7l10.1,13.1h-2.9l-9.7-12.7h-0.1h-9.9v12.7h-2.3V-2130.2z"/>
	</g>
	<polygon class="st2" points="394.2,-2130.2 394.2,-2128.1 404.9,-2128.1 404.9,-2099.7 407.2,-2099.7 407.2,-2128.1 417.8,-2128.1 
		417.8,-2130.2 	"/>
	<path class="st2" d="M432.4-2128l8,17.7h-16.1L432.4-2128z M431.4-2130.4l-14.2,30.8h2.4l3.9-8.6h18l3.9,8.6h2.5l-14.2-30.8H431.4z
		"/>
</g>
<g>
	<g>
		<path class="st0" d="M260.8-2071.2L260.8-2071.2c0-8.7,6.5-15.9,15.3-15.9c5.5,0,8.7,2,11.9,4.9l-1.6,1.7
			c-2.7-2.6-5.7-4.5-10.3-4.5c-7.3,0-12.9,6-12.9,13.7v0.1c0,7.7,5.6,13.8,12.9,13.8c4.4,0,7.4-1.7,10.5-4.8l1.5,1.5
			c-3.2,3.2-6.7,5.3-12.1,5.3C267.3-2055.5,260.8-2062.4,260.8-2071.2"/>
		<path class="st0" d="M320.4-2071.2L320.4-2071.2c0-7.6-5.5-13.8-13.1-13.8s-13,6.1-13,13.7v0.1c0,7.6,5.5,13.8,13.1,13.8
			C315-2057.5,320.4-2063.6,320.4-2071.2 M292-2071.2L292-2071.2c0-8.4,6.2-15.9,15.4-15.9c9.3,0,15.3,7.4,15.3,15.7c0,0,0,0,0,0.1
			c0,8.3-6.2,15.8-15.4,15.8C298.1-2055.5,292-2062.9,292-2071.2"/>
	</g>
	<polygon class="st0" points="330.3,-2086.6 332.5,-2086.6 332.5,-2058.1 350.5,-2058.1 350.5,-2056 330.3,-2056 	"/>
	<polygon class="st0" points="356.6,-2086.6 378.3,-2086.6 378.3,-2084.5 358.9,-2084.5 358.9,-2072.5 376.4,-2072.5 376.4,-2070.4 
		358.9,-2070.4 358.9,-2058.1 378.6,-2058.1 378.6,-2056 356.6,-2056 	"/>
	<polygon class="st0" points="384.9,-2086.6 387,-2086.6 399.3,-2068.5 411.6,-2086.6 413.7,-2086.6 413.7,-2056 411.5,-2056 
		411.5,-2082.6 399.4,-2065 399.2,-2065 387.1,-2082.6 387.1,-2056 384.9,-2056 	"/>
	<path class="st0" d="M443-2066.6l-8-17.7l-8.1,17.7H443z M433.9-2086.8h2.2l14.2,30.8h-2.5l-3.9-8.6h-18l-3.9,8.6h-2.4
		L433.9-2086.8z"/>
	<polygon class="st0" points="456.3,-2086.6 458.5,-2086.6 479.6,-2060 479.6,-2086.6 481.8,-2086.6 481.8,-2056 480,-2056 
		458.5,-2083.2 458.5,-2056 456.3,-2056 	"/>
</g>
<text transform="matrix(1 0 0 1 335.071 -2024.2062)" class="st5 st7" style="font-size:12.0277px;">DESIGNER</text>
<g>
	<g>
		<polygon class="st4" points="340.4,306.2 329.8,321.9 319.1,306.2 317.2,306.2 317.2,332.7 319.1,332.7 319.1,309.7 329.6,325 
			329.8,325 340.3,309.7 340.3,332.7 342.3,332.7 342.3,306.2 		"/>
		<path class="st4" d="M360.7,308.2l7,15.3h-14L360.7,308.2z M359.8,306l-12.4,26.7h2l3.4-7.4h15.7l3.4,7.4h2.2L361.7,306H359.8z"/>
		<g>
			<path class="st4" d="M390.1,320c4.4,0,7.7-2.2,7.7-6.1v-0.1c0-3.6-2.8-5.8-7.6-5.8h-9.1V320H390.1z M379.2,306.2h11.1
				c3.3,0,5.9,1,7.5,2.6c1.3,1.2,2,3,2,4.9v0.1c0,4.4-3.3,7-7.8,7.6l8.8,11.3h-2.5l-8.5-11h-0.1h-8.6v11h-2V306.2z"/>
		</g>
		<polygon class="st4" points="403.5,306.2 403.5,308 412.8,308 412.8,332.7 414.8,332.7 414.8,308 424,308 424,306.2 		"/>
		<path class="st4" d="M436.7,308.2l7,15.3h-14L436.7,308.2z M435.8,306l-12.4,26.7h2l3.4-7.4h15.6l3.4,7.4h2.2L437.7,306H435.8z"/>
	</g>
	<g>
		<g>
			<path class="st4" d="M287.8,357.4L287.8,357.4c0-7.6,5.6-13.8,13.3-13.8c4.7,0,7.6,1.7,10.3,4.2l-1.4,1.4c-2.3-2.2-5-3.9-8.9-3.9
				c-6.4,0-11.2,5.2-11.2,11.9v0.1c0,6.7,4.9,11.9,11.2,11.9c3.8,0,6.4-1.5,9.1-4.1l1.3,1.3c-2.8,2.8-5.8,4.6-10.5,4.6
				C293.4,371.1,287.8,365,287.8,357.4"/>
			<path class="st4" d="M339.5,357.4L339.5,357.4c0-6.6-4.8-12-11.3-12c-6.6,0-11.3,5.3-11.3,11.9v0.1c0,6.6,4.8,11.9,11.3,11.9
				C334.8,369.3,339.5,364,339.5,357.4 M314.8,357.4L314.8,357.4c0-7.3,5.3-13.8,13.4-13.8c8,0,13.3,6.4,13.3,13.6c0,0,0,0,0,0.1
				c0,7.2-5.3,13.7-13.4,13.7C320.1,371.1,314.8,364.7,314.8,357.4"/>
		</g>
		<polygon class="st4" points="348,344.1 350,344.1 350,368.8 365.6,368.8 365.6,370.6 348,370.6 		"/>
		<polygon class="st4" points="370.9,344.1 389.7,344.1 389.7,345.9 372.8,345.9 372.8,356.3 388,356.3 388,358.1 372.8,358.1 
			372.8,368.8 389.9,368.8 389.9,370.6 370.9,370.6 		"/>
		<polygon class="st4" points="395.4,344.1 397.3,344.1 408,359.8 418.6,344.1 420.5,344.1 420.5,370.6 418.5,370.6 418.5,347.6 
			408,362.8 407.8,362.8 397.3,347.6 397.3,370.6 395.4,370.6 		"/>
		<path class="st4" d="M445.9,361.4l-7-15.3l-7,15.3H445.9z M438,343.9h1.9l12.4,26.7h-2.2l-3.4-7.4h-15.6l-3.4,7.4h-2L438,343.9z"
			/>
		<polygon class="st4" points="457.4,344.1 459.3,344.1 477.6,367.2 477.6,344.1 479.5,344.1 479.5,370.6 478,370.6 459.3,347 
			459.3,370.6 457.4,370.6 		"/>
	</g>
	<text transform="matrix(1 0 0 1 352.2018 398.1957)" class="st4 st5 st6 st7">DESIGNER</text>
</g>
</svg>
