<svg id="Layer_1" data-name="Layer 1" xmlns="http://www.w3.org/2000/svg" xmlns:xlink="http://www.w3.org/1999/xlink" viewBox="0 0 800 600"><defs><style>.cls-1{fill:none;}.cls-2{fill:#c1b49a;}.cls-3,.cls-7{fill:#8c8c8c;}.cls-4{clip-path:url(#clip-path);}.cls-5{fill:#fff;}.cls-6{fill:#c3996b;}.cls-7{font-size:10.44px;font-family:Helvetica;letter-spacing:1px;}</style><clipPath id="clip-path"><rect class="cls-1" width="800" height="600"/></clipPath></defs><title>WebSiteMockup2-splashpage</title><rect class="cls-2" width="800" height="600"/><polygon class="cls-3" points="800 600 0 600 0 298 136 298 71.53 438.24 78.69 440.8 313 298 800 298 800 600"/><g class="cls-4"><path class="cls-5" d="M183.87,318.46h-52L257,196.2l-79.71-3.3L311.9,64.45a5.7,5.7,0,0,1-1.24-1.65,288.58,288.58,0,0,1-50-62c-0.41-.41-0.83-1.24-1.65-2.07A10.94,10.94,0,0,0,257,1.26,253.84,253.84,0,0,1,210.3,59.5c-33.45,32.22-67.74,63.19-101.6,95C78.55,183,49.22,212.31,26.92,247.42A169.67,169.67,0,0,0,.49,320.52v26a46.05,46.05,0,0,0,2.07,12.8,110,110,0,0,0,54.93,71,153.6,153.6,0,0,0,14,7.85Z"/><path class="cls-5" d="M517.17,315.15c-5.37-34.28-21.48-63.19-42.54-90-22.72-29.74-49.56-55.76-76.82-81-7-6.61-14-12.8-21.06-19.41l-57,46.26,73.52,1.65L231,297.81h76L74.42,439.06c45.85,19.41,91.28,14,135.47-14.46,7.85-5,14.46-12.8,21.48-19.41,1.24-1.24,2.48-2.89,3.72-4.13,0.41,0,.83.41,1.24,0.41-3.72,19.82-7.43,40.06-11.56,59.89-7.43,32.22-17.35,63.61-34.69,92.52-11.56,19.41-26,35.93-47.08,45.85a69.76,69.76,0,0,1-25.19,7.85H401.94c-30.56,0-52-20.24-69-44.19s-27.67-51.63-35.52-80.13a611.27,611.27,0,0,1-16.93-81.78v-2.89c4.13,4.54,7.43,8.26,11.15,12a134.27,134.27,0,0,0,107,38A130.68,130.68,0,0,0,494,401.06C515.11,376.28,522.13,347.37,517.17,315.15Z"/><path class="cls-5" d="M108.7,154.49C78.55,183,49.22,212.31,26.92,247.42"/><path class="cls-5" d="M517.17,315.15c-5.37-34.28-21.48-63.19-42.54-90-22.72-29.74-49.56-55.76-76.82-81-7-6.61-14-12.8-21.06-19.41l-57,46.26,73.52,1.65L231,297.81h76L74.42,439.06c45.85,19.41,91.28,14,135.47-14.46,7.85-5,14.46-12.8,21.48-19.41,1.24-1.24,2.48-2.89,3.72-4.13,0.41,0,.83.41,1.24,0.41-3.72,19.82-7.43,40.06-11.56,59.89-7.43,32.22-17.35,63.61-34.69,92.52-11.56,19.41-26,35.93-47.08,45.85a69.76,69.76,0,0,1-25.19,7.85H401.94c-30.56,0-52-20.24-69-44.19s-27.67-51.63-35.52-80.13a611.27,611.27,0,0,1-16.93-81.78v-2.89c4.13,4.54,7.43,8.26,11.15,12a134.27,134.27,0,0,0,107,38A130.68,130.68,0,0,0,494,401.06C515.11,376.28,522.13,347.37,517.17,315.15Z"/><path class="cls-6" d="M1391.21,537.58c-8.45-54-33.82-99.51-67-141.78-35.77-46.83-78-87.8-121-127.47-11.06-10.41-22.11-20.16-33.17-30.57l-89.75,72.84,115.77,2.6L940.51,510.26h119.67L694,732.69c72.19,30.57,143.73,22.11,213.32-22.76,12.36-7.8,22.76-20.16,33.82-30.57,2-2,3.9-4.55,5.85-6.5,0.65,0,1.3.65,2,.65-5.85,31.22-11.71,63.09-18.21,94.3C919,818.54,903.43,868,876.12,913.49c-18.21,30.57-41,56.58-74.14,72.19A109.85,109.85,0,0,1,762.3,998h447.46c-48.13,0-81.95-31.87-108.61-69.59s-43.57-81.3-55.93-126.17a962.55,962.55,0,0,1-26.67-128.77V669c6.5,7.15,11.71,13,17.56,18.86a211.44,211.44,0,0,0,168.45,59.83,205.78,205.78,0,0,0,150.24-74.79C1388,633.83,1399,588.3,1391.21,537.58Z"/></g><polygon class="cls-3" points="347.4 306.2 336.75 321.89 326.11 306.2 324.25 306.2 324.25 332.72 326.14 332.72 326.14 309.68 336.64 324.95 336.79 324.95 347.29 309.68 347.29 332.72 349.26 332.72 349.26 306.2 347.4 306.2"/><path class="cls-3" d="M367.7,308.17l7,15.35h-14ZM366.8,306l-12.35,26.71h2l3.37-7.43h15.65l3.37,7.43H381L368.69,306H366.8Z"/><path class="cls-3" d="M397.14,320c4.43,0,7.73-2.24,7.73-6.06v-0.08c0-3.56-2.8-5.8-7.62-5.8H388.2V320h8.94ZM386.23,306.2h11.14a10.45,10.45,0,0,1,7.46,2.61,7,7,0,0,1,2,4.93v0.08c0,4.43-3.3,7-7.77,7.58l8.75,11.33h-2.5l-8.45-11H388.2v11h-2V306.2Z"/><polygon class="cls-3" points="410.54 306.2 410.54 308.02 419.79 308.02 419.79 332.72 421.76 332.72 421.76 308.02 431 308.02 431 306.2 410.54 306.2"/><path class="cls-3" d="M443.68,308.17l7,15.35h-14ZM442.77,306l-12.35,26.71h2l3.37-7.43h15.65l3.37,7.43H457L444.66,306h-1.89Z"/><path class="cls-3" d="M294.78,357.42v-0.08c0-7.5,5.61-13.72,13.26-13.72a14,14,0,0,1,10.31,4.24l-1.4,1.44a12.17,12.17,0,0,0-8.94-3.9c-6.37,0-11.18,5.19-11.18,11.86v0.08c0,6.71,4.89,11.94,11.22,11.94,3.83,0,6.44-1.48,9.13-4.13l1.33,1.29c-2.8,2.77-5.84,4.62-10.53,4.62-7.58,0-13.19-6-13.19-13.64"/><path class="cls-3" d="M346.46,357.42v-0.08c0-6.56-4.77-11.94-11.33-11.94s-11.25,5.31-11.25,11.86v0.08c0,6.56,4.77,11.94,11.33,11.94s11.25-5.3,11.25-11.86m-24.63,0v-0.08c0-7.24,5.34-13.72,13.38-13.72s13.3,6.4,13.3,13.64c0,0,0,0,0,.08,0,7.24-5.34,13.72-13.38,13.72s-13.3-6.4-13.3-13.64"/><polygon class="cls-3" points="355.02 344.08 356.99 344.08 356.99 368.79 372.57 368.79 372.57 370.61 355.02 370.61 355.02 344.08"/><polygon class="cls-3" points="377.88 344.08 396.75 344.08 396.75 345.9 379.85 345.9 379.85 356.32 395.04 356.32 395.04 358.14 379.85 358.14 379.85 368.79 396.94 368.79 396.94 370.61 377.88 370.61 377.88 344.08"/><polygon class="cls-3" points="402.45 344.08 404.3 344.08 414.95 359.77 425.6 344.08 427.46 344.08 427.46 370.61 425.49 370.61 425.49 347.57 414.99 362.84 414.84 362.84 404.34 347.57 404.34 370.61 402.45 370.61 402.45 344.08"/><path class="cls-3" d="M452.88,361.4l-7-15.35-7,15.35h14ZM445,343.89h1.89l12.35,26.71h-2.16l-3.37-7.43H438.06l-3.37,7.43h-2Z"/><polygon class="cls-3" points="464.43 344.08 466.28 344.08 484.58 367.16 484.58 344.08 486.48 344.08 486.48 370.61 485 370.61 466.32 347.04 466.32 370.61 464.43 370.61 464.43 344.08"/><text class="cls-7" transform="translate(359.2 398.2)">DESIGNER</text></svg>