<?xml version="1.0" encoding="utf-8"?>
<!-- Generator: Adobe Illustrator 19.2.1, SVG Export Plug-In . SVG Version: 6.00 Build 0)  -->
<svg version="1.1" id="Layer_1" xmlns="http://www.w3.org/2000/svg" xmlns:xlink="http://www.w3.org/1999/xlink" x="0px" y="0px"
	 viewBox="0 0 509.5 600" style="enable-background:new 0 0 509.5 600;" xml:space="preserve">
<style type="text/css">
	.st0{fill:#C1B49A;}
	.st1{enable-background:new    ;}
	.st2{fill:#FFFFFF;}
	.st3{fill:#C3996B;}
	.st4{fill:#BBA7C4;}
	.st5{fill:#8C8C8C;}
	.st6{font-family:'Helvetica';}
	.st7{font-size:10.4367px;}
</style>
<rect x="-35.9" y="-1240" class="st0" width="800" height="59.3"/>
<text transform="matrix(1 0 0 1 425.7852 -1205.3206)" class="st2" style="font-family:'Helvetica-Bold'; font-size:9px;">ABOUT</text>
<text transform="matrix(1 0 0 1 530.2131 -1205.3206)" class="st2" style="font-family:'Helvetica-Bold'; font-size:9px;">WORK</text>
<text transform="matrix(1 0 0 1 626.0743 -1205.3206)" class="st2" style="font-family:'Helvetica-Bold'; font-size:9px;">CONTACT</text>
<g>
	<path class="st2" d="M-5.8-1203.8H-10l10-9.8l-6.4-0.3l10.7-10.3l-0.1-0.1c-1.6-1.5-2.9-3.1-4-4.9c0,0-0.1-0.1-0.1-0.2
		c-0.1,0.1-0.1,0.1-0.2,0.2c-1,1.7-2.3,3.3-3.7,4.6c-2.7,2.6-5.4,5-8.1,7.6c-2.4,2.3-4.7,4.6-6.5,7.4c-1.1,1.8-1.9,3.8-2.1,5.8v2.1
		c0,0.3,0.1,0.7,0.2,1c0.6,2.4,2.2,4.5,4.4,5.7c0.4,0.2,0.7,0.4,1.1,0.6L-5.8-1203.8z"/>
	<path class="st2" d="M20.8-1204.1c-0.4-2.7-1.7-5-3.4-7.2c-1.8-2.4-4-4.5-6.1-6.5c-0.6-0.5-1.1-1-1.7-1.5l-4.6,3.7l5.9,0.1l-13,10
		H4l-18.6,11.3c3.7,1.5,7.3,1.1,10.8-1.2c0.6-0.4,1.2-1,1.7-1.5c0.1-0.1,0.2-0.2,0.3-0.3h0.1c-0.3,1.6-0.6,3.2-0.9,4.8
		c-0.6,2.6-1.4,5.1-2.8,7.4c-0.9,1.5-2.1,2.9-3.8,3.7c-0.6,0.3-1.3,0.5-2,0.6h22.7c-2.4,0-4.2-1.6-5.5-3.5c-1.4-1.9-2.2-4.1-2.8-6.4
		c-0.6-2.1-1.1-4.3-1.4-6.5v-0.2c0.3,0.4,0.6,0.7,0.9,1c2.3,2.2,5.4,3.3,8.5,3c3-0.1,5.7-1.5,7.6-3.8
		C20.6-1199.2,21.2-1201.5,20.8-1204.1z"/>
</g>
<g>
	<path class="st3" d="M-982.4-1828.1h-2.5l6-5.9l-3.8-0.2l6.5-6.2c0,0,0,0-0.1-0.1c-0.9-0.9-1.7-1.9-2.4-3c0,0,0-0.1-0.1-0.1
		l-0.1,0.1c-0.6,1-1.4,2-2.2,2.8c-1.6,1.5-3.2,3-4.9,4.6c-1.4,1.4-2.9,2.8-3.9,4.5c-0.7,1.1-1.1,2.3-1.3,3.5v1.2
		c0,0.2,0,0.4,0.1,0.6c0.4,1.5,1.3,2.7,2.6,3.4c0.2,0.1,0.4,0.3,0.7,0.4L-982.4-1828.1z"/>
	<path class="st3" d="M-966.4-1828.3c-0.3-1.6-1-3-2-4.3c-1.1-1.4-2.4-2.7-3.7-3.9c-0.3-0.3-0.7-0.6-1-0.9l-2.7,2.2l3.5,0.1l-7.8,6
		h3.6l-11.1,6.8c2.2,0.9,4.4,0.7,6.5-0.7c0.4-0.2,0.7-0.6,1-0.9c0.1-0.1,0.1-0.1,0.2-0.2c0,0,0,0,0.1,0c-0.2,1-0.4,1.9-0.6,2.9
		c-0.4,1.5-0.8,3-1.7,4.4c-0.6,0.9-1.2,1.7-2.3,2.2c-0.4,0.2-0.8,0.3-1.2,0.4h13.6c-1.5,0-2.5-1-3.3-2.1s-1.3-2.5-1.7-3.8
		s-0.6-2.6-0.8-3.9v-0.1c0.2,0.2,0.4,0.4,0.5,0.6c1.4,1.3,3.2,2,5.1,1.8c1.8-0.1,3.4-0.9,4.6-2.3
		C-966.5-1825.4-966.2-1826.7-966.4-1828.3z"/>
</g>
<g>
	<g id="Ycdg4C.tif_5_">
		<g>
			<path class="st4" d="M-989.4-1827.7c0-0.3,0-0.6,0-0.9v-0.1c0.1-1.1,0.5-2,1.1-2.9c0.9-1.4,2.1-2.6,3.3-3.7
				c1.4-1.3,2.7-2.5,4.1-3.8c0.7-0.7,1.4-1.5,1.9-2.3c0,0,0-0.1,0.1-0.1c0,0,0,0.1,0.1,0.1c0.5,0.9,1.2,1.7,2,2.5
				c1.1,1.1,2.3,2.2,3.5,3.3c1.1,1,2.2,2.1,3.1,3.2c0.8,1.1,1.5,2.2,1.7,3.6c0.2,1.3-0.1,2.4-0.9,3.5c-1,1.2-2.3,1.8-3.8,1.9
				c-1.6,0.1-3.1-0.4-4.3-1.5c-0.2-0.1-0.3-0.3-0.5-0.5c0,0.1,0,0.1,0,0.1c0.2,1.1,0.4,2.2,0.7,3.3c0.3,1.1,0.7,2.2,1.4,3.2
				s1.5,1.7,2.8,1.8c-3.8,0-7.7,0-11.4,0c0.3-0.1,0.7-0.2,1-0.3c0.8-0.4,1.4-1.1,1.9-1.9c0.7-1.1,1.1-2.4,1.4-3.7
				c0.2-0.8,0.3-1.6,0.5-2.4c0,0,0,0-0.1,0c0,0.1-0.1,0.1-0.1,0.2c-0.3,0.3-0.5,0.6-0.9,0.8c-2,1.3-4,1.4-6.1,0.2
				c-1.1-0.6-1.9-1.6-2.2-2.8C-989.3-1827.4-989.3-1827.5-989.4-1827.7z"/>
		</g>
	</g>
	<g id="_x31_UulkA.tif_4_">
		<g>
			<path d="M-970.4-1839.7c-2,1.7-4.4,3.4-6.3,5.1h3c-2.1,1.6-4.4,3.3-6.6,5c1.1,0,2.1,0,3.1,0c0,0-5.6,3-8.4,4.5
				c0,0,2.3-2.5,3.5-3.7c-0.8,0-1.4,0-2.1,0c0,0,3.3-3.3,5.1-4.9c-1.1,0-2.1-0.1-3.2-0.1c0.1-0.1,6-5.8,6.1-5.8
				C-974.8-1839.6-970.5-1839.7-970.4-1839.7z"/>
		</g>
	</g>
	<text transform="matrix(1 0 0 1 -990.5007 -1817.1064)" class="st2" style="font-family:'ArialMT'; font-size:32.382px;">MARTA</text>
</g>
<path class="st2" d="M507.9,311c-5.3-33.7-21.3-62.3-41.7-88.8c-22.5-29.2-48.8-54.7-75.8-79.6c-7-6.5-14-13-21-19.4
	c-21.1,16.5-41.7,33-60.2,49.4c7.2,0.3,72.2,0.4,72.3,0.9C329.1,213.5,273.8,253,220,296c26.3,0,51,0,75.7,0
	c0.2,0-138,74.9-207.3,111.8c-0.3-0.4,55.6-62.8,85.2-91.8c-18.5,0-35.1,0-51.7,0c-0.3,0,81.6-79.3,124.3-119.9
	c-27-1-52.4-1.5-79-2.4v-0.1l0,0c0.5-0.5,8.4-8.2,20.3-19.7c31.4-30.3,90.7-87.3,117-111.8c-18.9-18.2-36-37.9-49.2-60.8
	c-0.3-0.6-0.8-1-1.5-1.8c-0.7,0.9-1.4,1.6-1.9,2.4c-12.3,21.3-28,40.1-45.7,57.1c-32.9,31.6-66.7,62.3-99.9,93.6
	c-29.7,28-58.4,56.9-80.3,91.6c-13.9,22.1-23.1,45.7-26,71.9c-0.1,0.8,0.1,1.6,0.1,2.3c0,7.8,0,15.6,0,23.3c0,4.2,0.9,8.5,1.9,12.7
	c8,31.3,26.3,54.7,54.1,69.8c50.8,27.6,101,25.7,149.7-5.9c7.8-5.1,14.1-12.4,21.1-18.7c1.3-1.2,2.4-2.7,3.6-4
	c0.4,0.2,0.9,0.3,1.3,0.5c-3.8,19.6-7.2,39.4-11.5,58.9c-7.2,31.9-17.1,62.8-34,91c-11.6,19.3-25.7,36.7-46.5,46.3
	c-8.7,4-18.3,8.7-24.9,8.7c91.3,0,185.6,0,279.8,0c-30.1,0-51.2-20.9-67.8-44.5c-16.9-24-27.1-51.3-35.1-79.4
	c-7.6-26.5-12.6-53.6-16.6-80.8c-0.1-0.6,0-1.4,0-2.8c4,4.3,7.4,8.2,11.1,11.8c29.5,28.4,65.2,40.1,105.5,37.4
	c37.5-2.5,69.6-17.3,93.8-46.7C505.9,371.2,512.9,342.6,507.9,311z"/>
<g>
	<g id="Ycdg4C.tif_4_">
		<g>
			<path class="st4" d="M-1365.1-1576.2c0-0.8,0-1.5,0-2.3c0-0.1,0.1-0.1,0.1-0.2c0.3-2.6,1.3-4.9,2.6-7c2.2-3.4,5-6.2,7.9-9
				c3.3-3.1,6.6-6.1,9.8-9.2c1.7-1.7,3.3-3.5,4.5-5.6c0-0.1,0.1-0.1,0.2-0.2c0.1,0.1,0.1,0.1,0.1,0.2c1.3,2.2,3,4.2,4.8,6
				c2.8,2.7,5.6,5.3,8.4,7.9c2.6,2.4,5.2,4.9,7.4,7.8c2,2.6,3.6,5.4,4.1,8.7c0.5,3.1-0.2,5.9-2.2,8.3c-2.4,2.9-5.5,4.3-9.2,4.6
				c-4,0.3-7.4-0.9-10.3-3.7c-0.4-0.3-0.7-0.7-1.1-1.2c0,0.1,0,0.2,0,0.3c0.4,2.7,0.9,5.3,1.6,7.9c0.8,2.7,1.8,5.4,3.4,7.8
				c1.6,2.3,3.7,4,6.6,4.3c-9.2,0-18.5,0-27.4,0c0.6-0.2,1.6-0.4,2.4-0.8c2-0.9,3.4-2.6,4.6-4.5c1.7-2.8,2.6-5.8,3.3-8.9
				c0.4-1.9,0.8-3.8,1.1-5.8h-0.1c-0.1,0.1-0.2,0.3-0.4,0.4c-0.7,0.6-1.3,1.3-2.1,1.8c-4.8,3.1-9.7,3.3-14.7,0.6
				c-2.7-1.5-4.6-3.8-5.3-6.8C-1364.9-1575.4-1365-1575.8-1365.1-1576.2z"/>
		</g>
	</g>
	<g id="_x31_UulkA.tif_3_">
		<g>
			<path d="M-1319.4-1605.1c-4.7,4.2-10.6,8.3-15.2,12.4c0,0,7.1,0,7.2,0.1c-5.1,3.9-10.6,8.1-15.8,12.1c2.6,0,5,0,7.4,0
				c0,0-13.5,7.3-20.3,11c0,0,5.5-5.9,8.3-9c-1.8,0-3.4,0-5.1,0c0-0.1,8-7.8,12.2-11.8c-2.6-0.1-5.1-0.2-7.7-0.3
				c0.2-0.2,14.5-14.1,14.8-14.1C-1330-1604.9-1319.7-1605.1-1319.4-1605.1z"/>
		</g>
	</g>
	<text transform="matrix(1 0 0 1 -1367.8583 -1550.6761)" class="st2" style="font-family:'ArialMT'; font-size:78.0364px;">MARTA</text>
</g>
<rect x="-35.9" y="-1989.3" width="800" height="59.3"/>
<text transform="matrix(1 0 0 1 361.3458 -1954.5894)" class="st2 st6" style="font-size:7.854px;">ABOUT</text>
<text transform="matrix(1 0 0 1 481.3801 -1954.5894)" class="st2 st6" style="font-size:7.854px;">WORK</text>
<text transform="matrix(1 0 0 1 601.4141 -1954.5894)" class="st2 st6" style="font-size:7.854px;">CONTACT</text>
<rect x="-35.9" y="-1989.3" width="800" height="59.3"/>
<text transform="matrix(1 0 0 1 361.3458 -1954.5894)" class="st2 st6" style="font-size:7.854px;">ABOUT</text>
<text transform="matrix(1 0 0 1 481.3801 -1954.5894)" class="st2 st6" style="font-size:7.854px;">WORK</text>
<text transform="matrix(1 0 0 1 601.4141 -1954.5894)" class="st2 st6" style="font-size:7.854px;">CONTACT</text>
<g>
	<path class="st3" d="M-7.4-1958.4h-2.5l6-5.9l-3.8-0.2l6.5-6.2c0,0,0,0-0.1-0.1c-0.9-0.9-1.7-1.9-2.4-3c0,0,0-0.1-0.1-0.1l-0.1,0.1
		c-0.6,1-1.4,2-2.2,2.8c-1.6,1.5-3.2,3-4.9,4.6c-1.4,1.4-2.9,2.8-3.9,4.5c-0.7,1.1-1.1,2.3-1.3,3.5v1.2c0,0.2,0,0.4,0.1,0.6
		c0.4,1.5,1.3,2.7,2.6,3.4c0.2,0.1,0.4,0.3,0.7,0.4L-7.4-1958.4z"/>
	<path class="st3" d="M8.6-1958.6c-0.3-1.6-1-3-2-4.3c-1.1-1.4-2.4-2.7-3.7-3.9c-0.3-0.3-0.7-0.6-1-0.9l-2.7,2.2l3.5,0.1l-7.8,6h3.6
		l-11.1,6.8c2.2,0.9,4.4,0.7,6.5-0.7c0.4-0.2,0.7-0.6,1-0.9c0.1-0.1,0.1-0.1,0.2-0.2c0,0,0,0,0.1,0c-0.2,1-0.4,1.9-0.6,2.9
		c-0.4,1.5-0.8,3-1.7,4.4c-0.6,0.9-1.2,1.7-2.3,2.2c-0.4,0.2-0.8,0.3-1.2,0.4H3.1c-1.5,0-2.5-1-3.3-2.1s-1.3-2.5-1.7-3.8
		c-0.4-1.3-0.6-2.6-0.8-3.9v-0.1c0.2,0.2,0.4,0.4,0.5,0.6c1.4,1.3,3.2,2,5.1,1.8c1.8-0.1,3.4-0.9,4.6-2.3
		C8.5-1955.6,8.8-1957,8.6-1958.6z"/>
</g>
<g>
	<path class="st3" d="M-7.4-1958.4h-2.5l6-5.9l-3.8-0.2l6.5-6.2c0,0,0,0-0.1-0.1c-0.9-0.9-1.7-1.9-2.4-3c0,0,0-0.1-0.1-0.1l-0.1,0.1
		c-0.6,1-1.4,2-2.2,2.8c-1.6,1.5-3.2,3-4.9,4.6c-1.4,1.4-2.9,2.8-3.9,4.5c-0.7,1.1-1.1,2.3-1.3,3.5v1.2c0,0.2,0,0.4,0.1,0.6
		c0.4,1.5,1.3,2.7,2.6,3.4c0.2,0.1,0.4,0.3,0.7,0.4L-7.4-1958.4z"/>
	<path class="st3" d="M8.6-1958.6c-0.3-1.6-1-3-2-4.3c-1.1-1.4-2.4-2.7-3.7-3.9c-0.3-0.3-0.7-0.6-1-0.9l-2.7,2.2l3.5,0.1l-7.8,6h3.6
		l-11.1,6.8c2.2,0.9,4.4,0.7,6.5-0.7c0.4-0.2,0.7-0.6,1-0.9c0.1-0.1,0.1-0.1,0.2-0.2c0,0,0,0,0.1,0c-0.2,1-0.4,1.9-0.6,2.9
		c-0.4,1.5-0.8,3-1.7,4.4c-0.6,0.9-1.2,1.7-2.3,2.2c-0.4,0.2-0.8,0.3-1.2,0.4H3.1c-1.5,0-2.5-1-3.3-2.1s-1.3-2.5-1.7-3.8
		c-0.4-1.3-0.6-2.6-0.8-3.9v-0.1c0.2,0.2,0.4,0.4,0.5,0.6c1.4,1.3,3.2,2,5.1,1.8c1.8-0.1,3.4-0.9,4.6-2.3
		C8.5-1955.6,8.8-1957,8.6-1958.6z"/>
</g>
<g>
	<polygon class="st3" points="313.6,-2130.2 301.3,-2112.1 289,-2130.2 286.9,-2130.2 286.9,-2099.7 289.1,-2099.7 289.1,-2126.2 
		301.2,-2108.6 301.3,-2108.6 313.4,-2126.2 313.4,-2099.7 315.7,-2099.7 315.7,-2130.2 	"/>
	<path class="st3" d="M337-2128l8,17.7h-16.1L337-2128z M335.9-2130.4l-14.2,30.8h2.4l3.9-8.6h18l3.9,8.6h2.5l-14.2-30.8H335.9z"/>
	<g>
		<path class="st3" d="M370.9-2114.4c5.1,0,8.9-2.6,8.9-7v-0.1c0-4.1-3.2-6.7-8.8-6.7h-10.4v13.8H370.9z M358.3-2130.2h12.8
			c3.8,0,6.8,1.2,8.6,3c1.4,1.4,2.3,3.5,2.3,5.7v0.1c0,5.1-3.8,8-9,8.7l10.1,13.1h-2.9l-9.7-12.7h-0.1h-9.9v12.7h-2.3v-30.6H358.3z"
			/>
	</g>
	<polygon class="st3" points="386.3,-2130.2 386.3,-2128.1 397,-2128.1 397,-2099.7 399.3,-2099.7 399.3,-2128.1 409.9,-2128.1 
		409.9,-2130.2 	"/>
	<path class="st3" d="M424.5-2128l8,17.7h-16.1L424.5-2128z M423.5-2130.4l-14.2,30.8h2.4l3.9-8.6h18l3.9,8.6h2.5l-14.2-30.8H423.5z
		"/>
</g>
<g>
	<g>
		<path class="st0" d="M252.9-2071.2L252.9-2071.2c0-8.7,6.5-15.9,15.3-15.9c5.5,0,8.7,2,11.9,4.9l-1.6,1.7
			c-2.7-2.6-5.7-4.5-10.3-4.5c-7.3,0-12.9,6-12.9,13.7v0.1c0,7.7,5.6,13.8,12.9,13.8c4.4,0,7.4-1.7,10.5-4.8l1.5,1.5
			c-3.2,3.2-6.7,5.3-12.1,5.3C259.4-2055.5,252.9-2062.4,252.9-2071.2"/>
		<path class="st0" d="M312.5-2071.2L312.5-2071.2c0-7.6-5.5-13.8-13.1-13.8s-13,6.1-13,13.7v0.1c0,7.6,5.5,13.8,13.1,13.8
			C307.1-2057.5,312.5-2063.6,312.5-2071.2 M284.1-2071.2L284.1-2071.2c0-8.4,6.2-15.9,15.4-15.9c9.3,0,15.3,7.4,15.3,15.7
			c0,0,0,0,0,0.1c0,8.3-6.2,15.8-15.4,15.8C290.2-2055.5,284.1-2062.9,284.1-2071.2"/>
	</g>
	<polygon class="st0" points="322.4,-2086.6 324.6,-2086.6 324.6,-2058.1 342.6,-2058.1 342.6,-2056 322.4,-2056 	"/>
	<polygon class="st0" points="348.7,-2086.6 370.4,-2086.6 370.4,-2084.5 351,-2084.5 351,-2072.5 368.5,-2072.5 368.5,-2070.4 
		351,-2070.4 351,-2058.1 370.7,-2058.1 370.7,-2056 348.7,-2056 	"/>
	<polygon class="st0" points="377,-2086.6 379.1,-2086.6 391.4,-2068.5 403.7,-2086.6 405.8,-2086.6 405.8,-2056 403.6,-2056 
		403.6,-2082.6 391.5,-2065 391.3,-2065 379.2,-2082.6 379.2,-2056 377,-2056 	"/>
	<path class="st0" d="M435.1-2066.6l-8-17.7l-8.1,17.7H435.1z M426-2086.8h2.2l14.2,30.8h-2.5l-3.9-8.6h-18l-3.9,8.6h-2.4
		L426-2086.8z"/>
	<polygon class="st0" points="448.4,-2086.6 450.6,-2086.6 471.7,-2060 471.7,-2086.6 473.9,-2086.6 473.9,-2056 472.1,-2056 
		450.6,-2083.2 450.6,-2056 448.4,-2056 	"/>
</g>
<text transform="matrix(1 0 0 1 327.199 -2024.2061)" class="st6" style="font-size:12.0277px;">DESIGNER</text>
<g>
	<g>
		<polygon class="st5" points="332.5,306.2 321.9,321.9 311.2,306.2 309.3,306.2 309.3,332.7 311.2,332.7 311.2,309.7 321.7,325 
			321.9,325 332.4,309.7 332.4,332.7 334.4,332.7 334.4,306.2 		"/>
		<path class="st5" d="M352.8,308.2l7,15.3h-14L352.8,308.2z M351.9,306l-12.4,26.7h2l3.4-7.4h15.7l3.4,7.4h2.2L353.8,306H351.9z"/>
		<g>
			<path class="st5" d="M382.2,320c4.4,0,7.7-2.2,7.7-6.1v-0.1c0-3.6-2.8-5.8-7.6-5.8h-9.1v12H382.2z M371.3,306.2h11.1
				c3.3,0,5.9,1,7.5,2.6c1.3,1.2,2,3,2,4.9v0.1c0,4.4-3.3,7-7.8,7.6l8.8,11.3h-2.5l-8.5-11h-0.1h-8.6v11h-2v-26.5H371.3z"/>
		</g>
		<polygon class="st5" points="395.6,306.2 395.6,308 404.9,308 404.9,332.7 406.9,332.7 406.9,308 416.1,308 416.1,306.2 		"/>
		<path class="st5" d="M428.8,308.2l7,15.3h-14L428.8,308.2z M427.9,306l-12.4,26.7h2l3.4-7.4h15.6l3.4,7.4h2.2L429.8,306H427.9z"/>
	</g>
	<g>
		<g>
			<path class="st5" d="M279.9,357.4L279.9,357.4c0-7.6,5.6-13.8,13.3-13.8c4.7,0,7.6,1.7,10.3,4.2l-1.4,1.4c-2.3-2.2-5-3.9-8.9-3.9
				c-6.4,0-11.2,5.2-11.2,11.9v0.1c0,6.7,4.9,11.9,11.2,11.9c3.8,0,6.4-1.5,9.1-4.1l1.3,1.3c-2.8,2.8-5.8,4.6-10.5,4.6
				C285.5,371.1,279.9,365,279.9,357.4"/>
			<path class="st5" d="M331.6,357.4L331.6,357.4c0-6.6-4.8-12-11.3-12c-6.6,0-11.3,5.3-11.3,11.9v0.1c0,6.6,4.8,11.9,11.3,11.9
				C326.9,369.3,331.6,364,331.6,357.4 M306.9,357.4L306.9,357.4c0-7.3,5.3-13.8,13.4-13.8c8,0,13.3,6.4,13.3,13.6c0,0,0,0,0,0.1
				c0,7.2-5.3,13.7-13.4,13.7C312.2,371.1,306.9,364.7,306.9,357.4"/>
		</g>
		<polygon class="st5" points="340.1,344.1 342.1,344.1 342.1,368.8 357.7,368.8 357.7,370.6 340.1,370.6 		"/>
		<polygon class="st5" points="363,344.1 381.8,344.1 381.8,345.9 364.9,345.9 364.9,356.3 380.1,356.3 380.1,358.1 364.9,358.1 
			364.9,368.8 382,368.8 382,370.6 363,370.6 		"/>
		<polygon class="st5" points="387.5,344.1 389.4,344.1 400.1,359.8 410.7,344.1 412.6,344.1 412.6,370.6 410.6,370.6 410.6,347.6 
			400.1,362.8 399.9,362.8 389.4,347.6 389.4,370.6 387.5,370.6 		"/>
		<path class="st5" d="M438,361.4l-7-15.3l-7,15.3H438z M430.1,343.9h1.9l12.4,26.7h-2.2l-3.4-7.4h-15.6l-3.4,7.4h-2L430.1,343.9z"
			/>
		<polygon class="st5" points="449.5,344.1 451.4,344.1 469.7,367.2 469.7,344.1 471.6,344.1 471.6,370.6 470.1,370.6 451.4,347 
			451.4,370.6 449.5,370.6 		"/>
	</g>
	<text transform="matrix(1 0 0 1 344.3298 398.1957)" class="st5 st6 st7">DESIGNER</text>
</g>
</svg>
